{"accessors" : [{"bufferView" : 0, "byteOffset" : 0, "componentType" : 5123, "count" : 618, "type" : "SCALAR", "max" : [495], "min" : [0]}, {"bufferView" : 1, "byteOffset" : 0, "componentType" : 5126, "count" : 496, "type" : "VEC3", "max" : [0.05044995993375778, 1.7414398193359375, 0.11084619164466858], "min" : [0.012378139421343803, 1.7034262418746948, 0.09192400425672531], "name" : "POSITION"}, {"bufferView" : 1, "byteOffset" : 12, "componentType" : 5126, "count" : 496, "type" : "VEC2", "max" : [0.9646214246749878, 0.9818061590194702], "min" : [0.019903719425201416, 0.020990610122680664], "name" : "TEXCOORD_0"}, {"bufferView" : 1, "byteOffset" : 20, "componentType" : 5126, "count" : 496, "type" : "VEC3", "max" : [0.9406006932258606, 0.9512309432029724, 1.0000042915344238], "min" : [-0.9471116065979004, -0.9485120177268982, -1.0000042915344238], "name" : "NORMAL"}, {"bufferView" : 0, "byteOffset" : 1236, "componentType" : 5123, "count" : 618, "type" : "SCALAR", "max" : [500], "min" : [0]}, {"bufferView" : 2, "byteOffset" : 0, "componentType" : 5126, "count" : 501, "type" : "VEC3", "max" : [-0.012644224800169468, 1.741478443145752, 0.11084622889757156], "min" : [-0.05056469887495041, 1.703386664390564, 0.0919240415096283], "name" : "POSITION"}, {"bufferView" : 2, "byteOffset" : 12, "componentType" : 5126, "count" : 501, "type" : "VEC2", "max" : [0.9585750699043274, 0.966354489326477], "min" : [0.006885886192321777, 0.022762417793273926], "name" : "TEXCOORD_0"}, {"bufferView" : 2, "byteOffset" : 20, "componentType" : 5126, "count" : 501, "type" : "VEC3", "max" : [0.9310468435287476, 0.9478710293769836, 1.0000042915344238], "min" : [-0.9491647481918335, -0.9364743232727051, -1.0000042915344238], "name" : "NORMAL"}, {"bufferView" : 0, "byteOffset" : 2472, "componentType" : 5123, "count" : 12282, "type" : "SCALAR", "max" : [9739], "min" : [0]}, {"bufferView" : 3, "byteOffset" : 0, "componentType" : 5126, "count" : 9740, "type" : "VEC3", "max" : [0.09579431265592575, 1.8330844640731812, 0.14059406518936157], "min" : [-0.09610731154680252, 1.5206061601638794, -0.08657769858837128], "name" : "POSITION"}, {"bufferView" : 3, "byteOffset" : 12, "componentType" : 5126, "count" : 9740, "type" : "VEC2", "max" : [0.9943000078201294, 0.9807000160217285], "min" : [0.004999999888241291, 0.004350006580352783], "name" : "TEXCOORD_0"}, {"bufferView" : 3, "byteOffset" : 20, "componentType" : 5126, "count" : 9740, "type" : "VEC3", "max" : [0.9992218613624573, 0.9998693466186523, 0.9999847412109375], "min" : [-0.9992175102233887, -0.9999938011169434, -0.9999959468841553], "name" : "NORMAL"}, {"bufferView" : 0, "byteOffset" : 27036, "componentType" : 5123, "count" : 300, "type" : "SCALAR", "max" : [241], "min" : [0]}, {"bufferView" : 4, "byteOffset" : 0, "componentType" : 5126, "count" : 242, "type" : "VEC3", "max" : [0.028575262054800987, 1.6736441850662231, 0.12402714043855667], "min" : [-0.028575262054800987, 1.6379327774047852, 0.055796314030885696], "name" : "POSITION"}, {"bufferView" : 4, "byteOffset" : 12, "componentType" : 5126, "count" : 242, "type" : "VEC2", "max" : [0.9808249473571777, 0.983213484287262], "min" : [0.051069796085357666, 0.02829587459564209], "name" : "TEXCOORD_0"}, {"bufferView" : 4, "byteOffset" : 20, "componentType" : 5126, "count" : 242, "type" : "VEC3", "max" : [0.9971882700920105, 0.8775893449783325, 0.9974808692932129], "min" : [-0.9971882700920105, -0.9858413934707642, -0.7650182843208313], "name" : "NORMAL"}, {"bufferView" : 0, "byteOffset" : 27636, "componentType" : 5123, "count" : 8997, "type" : "SCALAR", "max" : [7197], "min" : [0]}, {"bufferView" : 5, "byteOffset" : 0, "componentType" : 5126, "count" : 7198, "type" : "VEC3", "max" : [0.09060387313365936, 1.8737493753433228, 0.12803447246551514], "min" : [-0.08764079213142395, 1.7257670164108276, -0.0975240170955658], "name" : "POSITION"}, {"bufferView" : 5, "byteOffset" : 12, "componentType" : 5126, "count" : 7198, "type" : "VEC3", "max" : [0.9966084361076355, 0.9998660683631897, 0.9995697736740112], "min" : [-0.9972721934318542, -0.9589331150054932, -0.9993594884872437], "name" : "NORMAL"}, {"bufferView" : 5, "byteOffset" : 24, "componentType" : 5126, "count" : 7198, "type" : "VEC2", "max" : [0.9687672853469849, 0.9998178482055664], "min" : [0.00018214115698356181, 0.00018209218978881836], "name" : "TEXCOORD_0"}, {"bufferView" : 0, "byteOffset" : 45632, "componentType" : 5123, "count" : 7722, "type" : "SCALAR", "max" : [6158], "min" : [0]}, {"bufferView" : 6, "byteOffset" : 0, "componentType" : 5126, "count" : 6159, "type" : "VEC3", "max" : [0.4779623746871948, 1.652786374092102, 0.1717723309993744], "min" : [-0.47542551159858704, 0.9734875559806824, -0.18164969980716705], "name" : "POSITION"}, {"bufferView" : 6, "byteOffset" : 12, "componentType" : 5126, "count" : 6159, "type" : "VEC3", "max" : [0.9990646839141846, 0.9855607151985168, 0.9999631643295288], "min" : [-0.9990203976631165, -0.9956402778625488, -0.9994051456451416], "name" : "NORMAL"}, {"bufferView" : 6, "byteOffset" : 24, "componentType" : 5126, "count" : 6159, "type" : "VEC2", "max" : [0.9699940085411072, 0.994454026222229], "min" : [0.029426999390125275, 0.013090014457702637], "name" : "TEXCOORD_0"}, {"bufferView" : 0, "byteOffset" : 61076, "componentType" : 5123, "count" : 14925, "type" : "SCALAR", "max" : [12579], "min" : [0]}, {"bufferView" : 7, "byteOffset" : 0, "componentType" : 5126, "count" : 12580, "type" : "VEC3", "max" : [0.23754055798053741, 1.1230497360229492, 0.13829107582569122], "min" : [-0.23766617476940155, 0.12453858554363251, -0.14431193470954895], "name" : "POSITION"}, {"bufferView" : 7, "byteOffset" : 12, "componentType" : 5126, "count" : 12580, "type" : "VEC3", "max" : [0.9997838735580444, 0.9998065829277039, 0.9998907446861267], "min" : [-0.9991488456726074, -0.9993411898612976, -0.9998707175254822], "name" : "NORMAL"}, {"bufferView" : 7, "byteOffset" : 24, "componentType" : 5126, "count" : 12580, "type" : "VEC2", "max" : [0.970665693283081, 0.9785736203193665], "min" : [0.0552486777305603, 0.035552382469177246], "name" : "TEXCOORD_0"}, {"bufferView" : 0, "byteOffset" : 90928, "componentType" : 5123, "count" : 5646, "type" : "SCALAR", "max" : [4527], "min" : [0]}, {"bufferView" : 8, "byteOffset" : 0, "componentType" : 5126, "count" : 4528, "type" : "VEC3", "max" : [0.24364279210567474, 0.17319175601005554, 0.21446493268013], "min" : [-0.24366572499275208, -0.014068331569433212, -0.144300177693367], "name" : "POSITION"}, {"bufferView" : 8, "byteOffset" : 12, "componentType" : 5126, "count" : 4528, "type" : "VEC3", "max" : [0.9997305870056152, 0.9994744062423706, 0.9950538277626038], "min" : [-0.9997323155403137, -0.9876411557197571, -0.9988340735435486], "name" : "NORMAL"}, {"bufferView" : 8, "byteOffset" : 24, "componentType" : 5126, "count" : 4528, "type" : "VEC4", "max" : [0.9994000792503357, 0.9982475638389587, 0.9740469455718994, 0], "min" : [-0.9994069337844849, -0.9955520033836365, -0.9981316328048706, 0], "name" : "TANGENT"}, {"bufferView" : 8, "byteOffset" : 40, "componentType" : 5126, "count" : 4528, "type" : "VEC2", "max" : [0.999500036239624, 0.9994999766349792], "min" : [0.0004999935626983643, 0.004279971122741699], "name" : "TEXCOORD_0"}, {"bufferView" : 0, "byteOffset" : 102220, "componentType" : 5123, "count" : 17448, "type" : "SCALAR", "max" : [13985], "min" : [0]}, {"bufferView" : 9, "byteOffset" : 0, "componentType" : 5126, "count" : 13986, "type" : "VEC3", "max" : [0.5295923352241516, 1.354709506034851, 0.1500425636768341], "min" : [-0.5296165943145752, 0.07699763774871826, -0.11404868215322495], "name" : "POSITION"}, {"bufferView" : 9, "byteOffset" : 12, "componentType" : 5126, "count" : 13986, "type" : "VEC3", "max" : [0.9989667534828186, 0.8557605743408203, 0.9980441927909851], "min" : [-0.998966634273529, -0.9993655681610107, -0.9880251288414001], "name" : "NORMAL"}, {"bufferView" : 9, "byteOffset" : 24, "componentType" : 5126, "count" : 13986, "type" : "VEC2", "max" : [0.9905531406402588, 0.9527736306190491], "min" : [0.009567409753799438, 0.12644481658935547], "name" : "TEXCOORD_0"}], "asset" : {"generator" : "Aspose.3D 23.7.0", "version" : "2.0"}, "buffers" : [{"uri" : "data:application/octet-stream;base64,", "byteLength" : 2421284}], "bufferViews" : [{"buffer" : 0, "byteOffset" : 0, "byteLength" : 137116, "target" : 34963}, {"buffer" : 0, "byteOffset" : 137120, "byteLength" : 19776, "byteStride" : 32, "target" : 34962}, {"buffer" : 0, "byteOffset" : 156900, "byteLength" : 19776, "byteStride" : 32, "target" : 34962}, {"buffer" : 0, "byteOffset" : 176680, "byteLength" : 393024, "byteStride" : 32, "target" : 34962}, {"buffer" : 0, "byteOffset" : 569708, "byteLength" : 9600, "byteStride" : 32, "target" : 34962}, {"buffer" : 0, "byteOffset" : 579312, "byteLength" : 287904, "byteStride" : 32, "target" : 34962}, {"buffer" : 0, "byteOffset" : 867220, "byteLength" : 247104, "byteStride" : 32, "target" : 34962}, {"buffer" : 0, "byteOffset" : 1114328, "byteLength" : 477600, "byteStride" : 32, "target" : 34962}, {"buffer" : 0, "byteOffset" : 1591932, "byteLength" : 271008, "byteStride" : 48, "target" : 34962}, {"buffer" : 0, "byteOffset" : 1862944, "byteLength" : 558336, "byteStride" : 32, "target" : 34962}], "images" : [{"uri" : "data:image/jpeg;base64,"}, {"uri" : "data:image/jpeg;base64,"}, {"uri" : "data:image/jpeg;base64,"}, {"uri" : "data:image/jpeg;base64,"}, {"uri" : "data:image/jpeg;base64,"}, {"uri" : "data:image/jpeg;base64,"}, {"uri" : "data:image/jpeg;base64,"}, {"uri" : "data:image/jpeg;base64,"}, {"uri" : "data:image/jpeg;base64,"}, {"uri" : "data:image/jpeg;base64,"}, {"uri" : "data:image/jpeg;base64,"}, {"uri" : "data:image/jpeg;base64,"}, {"uri" : "data:image/jpeg;base64,"}, {"uri" : "data:image/jpeg;base64,"}, {"uri" : "data:image/jpeg;base64,"}], "materials" : [{"name" : "Wolf3D_Eye", "pbrMetallicRoughness" : {"baseColorFactor" : [1, 1, 1, 1], "baseColorTexture" : {"index" : 0, "texCoord" : 0}, "metallicFactor" : 0, "roughnessFactor" : 1}, "emissiveFactor" : [0, 0, 0], "alphaMode" : "OPAQUE", "doubleSided" : false}, {"name" : "Wolf3D_Eye", "pbrMetallicRoughness" : {"baseColorFactor" : [1, 1, 1, 1], "baseColorTexture" : {"index" : 0, "texCoord" : 0}, "metallicFactor" : 0, "roughnessFactor" : 1}, "emissiveFactor" : [0, 0, 0], "alphaMode" : "OPAQUE", "doubleSided" : false}, {"name" : "Wolf3D_Skin", "pbrMetallicRoughness" : {"baseColorFactor" : [1, 1, 1, 1], "baseColorTexture" : {"index" : 1, "texCoord" : 0}, "metallicFactor" : 0, "roughnessFactor" : 0.699999988079071}, "emissiveFactor" : [0, 0, 0], "alphaMode" : "OPAQUE", "doubleSided" : false}, {"name" : "Wolf3D_Teeth", "pbrMetallicRoughness" : {"baseColorFactor" : [1, 1, 1, 1], "baseColorTexture" : {"index" : 2, "texCoord" : 0}, "metallicFactor" : 0, "roughnessFactor" : 1}, "emissiveFactor" : [0, 0, 0], "alphaMode" : "OPAQUE", "doubleSided" : true}, {"name" : "Wolf3D_Hair", "pbrMetallicRoughness" : {"baseColorFactor" : [1, 1, 1, 1], "baseColorTexture" : {"index" : 4, "texCoord" : 0}, "metallicFactor" : 0, "roughnessFactor" : 0.8545454740524292}, "normalTexture" : {"index" : 3, "texCoord" : 0, "scale" : 1}, "emissiveFactor" : [0, 0, 0], "alphaMode" : "OPAQUE", "doubleSided" : false}, {"name" : "Wolf3D_Outfit_Top", "pbrMetallicRoughness" : {"baseColorFactor" : [1, 1, 1, 1], "baseColorTexture" : {"index" : 6, "texCoord" : 0}, "metallicFactor" : 1, "roughnessFactor" : 1, "metallicRoughnessTexture" : {"index" : 7, "texCoord" : 0}}, "normalTexture" : {"index" : 5, "texCoord" : 0, "scale" : 1}, "emissiveFactor" : [0, 0, 0], "alphaMode" : "OPAQUE", "doubleSided" : false}, {"name" : "Wolf3D_Outfit_Bottom", "pbrMetallicRoughness" : {"baseColorFactor" : [1, 1, 1, 1], "baseColorTexture" : {"index" : 9, "texCoord" : 0}, "metallicFactor" : 1, "roughnessFactor" : 1, "metallicRoughnessTexture" : {"index" : 10, "texCoord" : 0}}, "normalTexture" : {"index" : 8, "texCoord" : 0, "scale" : 1}, "emissiveFactor" : [0, 0, 0], "alphaMode" : "OPAQUE", "doubleSided" : false}, {"name" : "Wolf3D_Outfit_Footwear", "pbrMetallicRoughness" : {"baseColorFactor" : [1, 1, 1, 1], "baseColorTexture" : {"index" : 12, "texCoord" : 0}, "metallicFactor" : 1, "roughnessFactor" : 1, "metallicRoughnessTexture" : {"index" : 13, "texCoord" : 0}}, "normalTexture" : {"index" : 11, "texCoord" : 0, "scale" : 1}, "emissiveFactor" : [0, 0, 0], "alphaMode" : "OPAQUE", "doubleSided" : false}, {"name" : "Wolf3D_Body", "pbrMetallicRoughness" : {"baseColorFactor" : [1, 1, 1, 1], "baseColorTexture" : {"index" : 14, "texCoord" : 0}, "metallicFactor" : 0, "roughnessFactor" : 0.5}, "emissiveFactor" : [0, 0, 0], "alphaMode" : "OPAQUE", "doubleSided" : false}], "meshes" : [{"primitives" : [{"attributes" : {"POSITION" : 1, "TEXCOORD_0" : 2, "NORMAL" : 3}, "indices" : 0, "material" : 0, "mode" : 4}]}, {"primitives" : [{"attributes" : {"POSITION" : 5, "TEXCOORD_0" : 6, "NORMAL" : 7}, "indices" : 4, "material" : 1, "mode" : 4}]}, {"primitives" : [{"attributes" : {"POSITION" : 9, "TEXCOORD_0" : 10, "NORMAL" : 11}, "indices" : 8, "material" : 2, "mode" : 4}]}, {"primitives" : [{"attributes" : {"POSITION" : 13, "TEXCOORD_0" : 14, "NORMAL" : 15}, "indices" : 12, "material" : 3, "mode" : 4}]}, {"primitives" : [{"attributes" : {"POSITION" : 17, "NORMAL" : 18, "TEXCOORD_0" : 19}, "indices" : 16, "material" : 4, "mode" : 4}]}, {"primitives" : [{"attributes" : {"POSITION" : 21, "NORMAL" : 22, "TEXCOORD_0" : 23}, "indices" : 20, "material" : 5, "mode" : 4}]}, {"primitives" : [{"attributes" : {"POSITION" : 25, "NORMAL" : 26, "TEXCOORD_0" : 27}, "indices" : 24, "material" : 6, "mode" : 4}]}, {"primitives" : [{"attributes" : {"POSITION" : 29, "NORMAL" : 30, "TANGENT" : 31, "TEXCOORD_0" : 32}, "indices" : 28, "material" : 7, "mode" : 4}]}, {"primitives" : [{"attributes" : {"POSITION" : 34, "NORMAL" : 35, "TEXCOORD_0" : 36}, "indices" : 33, "material" : 8, "mode" : 4}]}], "nodes" : [{"mesh" : 0, "name" : "EyeLeft"}, {"mesh" : 1, "name" : "EyeRight"}, {"mesh" : 2, "name" : "Wolf3D_Head"}, {"mesh" : 3, "name" : "Wolf3D_Teeth"}, {"mesh" : 4, "name" : "Wolf3D_Hair"}, {"mesh" : 5, "name" : "Wolf3D_Outfit_Top"}, {"mesh" : 6, "name" : "Wolf3D_Outfit_Bottom"}, {"mesh" : 7, "name" : "Wolf3D_Outfit_Footwear"}, {"mesh" : 8, "name" : "Wolf3D_Body"}, {"children" : [0, 1, 2, 3, 4, 5, 6, 7, 8], "name" : "Armature"}], "samplers" : [{"magFilter" : 9728, "minFilter" : 9728, "wrapS" : 10497, "wrapT" : 10497}, {"magFilter" : 9728, "minFilter" : 9728, "wrapS" : 10497, "wrapT" : 10497}, {"magFilter" : 9729, "minFilter" : 9987, "wrapS" : 10497, "wrapT" : 10497}, {"magFilter" : 9729, "minFilter" : 9987, "wrapS" : 10497, "wrapT" : 10497}, {"magFilter" : 9728, "minFilter" : 9728, "wrapS" : 10497, "wrapT" : 10497}, {"magFilter" : 9729, "minFilter" : 9987, "wrapS" : 33071, "wrapT" : 33071}, {"magFilter" : 9729, "minFilter" : 9987, "wrapS" : 33071, "wrapT" : 33071}, {"magFilter" : 9729, "minFilter" : 9987, "wrapS" : 33071, "wrapT" : 33071}, {"magFilter" : 9729, "minFilter" : 9987, "wrapS" : 33071, "wrapT" : 33071}, {"magFilter" : 9729, "minFilter" : 9987, "wrapS" : 33071, "wrapT" : 33071}, {"magFilter" : 9729, "minFilter" : 9987, "wrapS" : 33071, "wrapT" : 33071}, {"magFilter" : 9729, "minFilter" : 9987, "wrapS" : 33071, "wrapT" : 33071}, {"magFilter" : 9729, "minFilter" : 9987, "wrapS" : 33071, "wrapT" : 33071}, {"magFilter" : 9729, "minFilter" : 9987, "wrapS" : 33071, "wrapT" : 33071}, {"magFilter" : 9728, "minFilter" : 9728, "wrapS" : 10497, "wrapT" : 10497}], "scene" : 0, "scenes" : [{"nodes" : [9]}], "textures" : [{"sampler" : 0, "source" : 0, "name" : ""}, {"sampler" : 1, "source" : 1, "name" : ""}, {"sampler" : 2, "source" : 2, "name" : ""}, {"sampler" : 3, "source" : 3, "name" : ""}, {"sampler" : 4, "source" : 4, "name" : ""}, {"sampler" : 5, "source" : 5, "name" : ""}, {"sampler" : 6, "source" : 6, "name" : ""}, {"sampler" : 7, "source" : 7, "name" : ""}, {"sampler" : 8, "source" : 8, "name" : ""}, {"sampler" : 9, "source" : 9, "name" : ""}, {"sampler" : 10, "source" : 10, "name" : ""}, {"sampler" : 11, "source" : 11, "name" : ""}, {"sampler" : 12, "source" : 12, "name" : ""}, {"sampler" : 13, "source" : 13, "name" : ""}, {"sampler" : 14, "source" : 14, "name" : ""}]}