{"accessors" : [{"bufferView" : 0, "byteOffset" : 0, "componentType" : 5123, "count" : 618, "type" : "SCALAR", "max" : [495], "min" : [0]}, {"bufferView" : 1, "byteOffset" : 0, "componentType" : 5126, "count" : 496, "type" : "VEC3", "max" : [0.05216360464692116, 1.7446706295013428, 0.11040152609348297], "min" : [0.011687354184687138, 1.704256296157837, 0.09028579294681549], "name" : "POSITION"}, {"bufferView" : 1, "byteOffset" : 12, "componentType" : 5126, "count" : 496, "type" : "VEC2", "max" : [0.9646214246749878, 0.9818061590194702], "min" : [0.019903719425201416, 0.020990610122680664], "name" : "TEXCOORD_0"}, {"bufferView" : 1, "byteOffset" : 20, "componentType" : 5126, "count" : 496, "type" : "VEC3", "max" : [0.9406006932258606, 0.9512309432029724, 1.0000042915344238], "min" : [-0.9471116065979004, -0.9485120177268982, -1.0000042915344238], "name" : "NORMAL"}, {"bufferView" : 0, "byteOffset" : 1236, "componentType" : 5123, "count" : 618, "type" : "SCALAR", "max" : [500], "min" : [0]}, {"bufferView" : 2, "byteOffset" : 0, "componentType" : 5126, "count" : 501, "type" : "VEC3", "max" : [-0.011973291635513306, 1.7447125911712646, 0.11040156334638596], "min" : [-0.05228862911462784, 1.7042150497436523, 0.09028582274913788], "name" : "POSITION"}, {"bufferView" : 2, "byteOffset" : 12, "componentType" : 5126, "count" : 501, "type" : "VEC2", "max" : [0.9585750699043274, 0.966354489326477], "min" : [0.006885886192321777, 0.022762417793273926], "name" : "TEXCOORD_0"}, {"bufferView" : 2, "byteOffset" : 20, "componentType" : 5126, "count" : 501, "type" : "VEC3", "max" : [0.9310468435287476, 0.9478710293769836, 1.0000042915344238], "min" : [-0.9491647481918335, -0.9364743232727051, -1.0000042915344238], "name" : "NORMAL"}, {"bufferView" : 0, "byteOffset" : 2472, "componentType" : 5123, "count" : 12282, "type" : "SCALAR", "max" : [9739], "min" : [0]}, {"bufferView" : 3, "byteOffset" : 0, "componentType" : 5126, "count" : 9740, "type" : "VEC3", "max" : [0.09579431265592575, 1.8330844640731812, 0.14469605684280396], "min" : [-0.09610731154680252, 1.5206061601638794, -0.08657769858837128], "name" : "POSITION"}, {"bufferView" : 3, "byteOffset" : 12, "componentType" : 5126, "count" : 9740, "type" : "VEC2", "max" : [0.9943000078201294, 0.9807000160217285], "min" : [0.004999999888241291, 0.004350006580352783], "name" : "TEXCOORD_0"}, {"bufferView" : 3, "byteOffset" : 20, "componentType" : 5126, "count" : 9740, "type" : "VEC3", "max" : [0.9992218613624573, 0.9998693466186523, 0.9999847412109375], "min" : [-0.9992175102233887, -0.9999938011169434, -0.9999959468841553], "name" : "NORMAL"}, {"bufferView" : 0, "byteOffset" : 27036, "componentType" : 5123, "count" : 300, "type" : "SCALAR", "max" : [241], "min" : [0]}, {"bufferView" : 4, "byteOffset" : 0, "componentType" : 5126, "count" : 242, "type" : "VEC3", "max" : [0.028585385531187057, 1.6739341020584106, 0.1252184361219406], "min" : [-0.028585387393832207, 1.6380916833877563, 0.056983355432748795], "name" : "POSITION"}, {"bufferView" : 4, "byteOffset" : 12, "componentType" : 5126, "count" : 242, "type" : "VEC2", "max" : [0.9808249473571777, 0.983213484287262], "min" : [0.051069796085357666, 0.02829587459564209], "name" : "TEXCOORD_0"}, {"bufferView" : 4, "byteOffset" : 20, "componentType" : 5126, "count" : 242, "type" : "VEC3", "max" : [0.9971882700920105, 0.8775893449783325, 0.9974808692932129], "min" : [-0.9971882700920105, -0.9858413934707642, -0.7650182843208313], "name" : "NORMAL"}, {"bufferView" : 0, "byteOffset" : 27636, "componentType" : 5123, "count" : 4878, "type" : "SCALAR", "max" : [3902], "min" : [0]}, {"bufferView" : 5, "byteOffset" : 0, "componentType" : 5126, "count" : 3903, "type" : "VEC3", "max" : [0.5308414697647095, 1.2241872549057007, 0.14855940639972687], "min" : [-0.5308488607406616, 0.8881332874298096, -0.07795360684394836], "name" : "POSITION"}, {"bufferView" : 5, "byteOffset" : 12, "componentType" : 5126, "count" : 3903, "type" : "VEC3", "max" : [0.9973809123039246, 0.7783270478248596, 0.9963282942771912], "min" : [-0.9973816871643066, -0.9855193495750427, -0.9868881106376648], "name" : "NORMAL"}, {"bufferView" : 5, "byteOffset" : 24, "componentType" : 5126, "count" : 3903, "type" : "VEC4", "max" : [0.9989013671875, 0.9992497563362122, 0.994305431842804, 0], "min" : [-0.9963691830635071, -0.9896969795227051, -0.9998748898506165, 0], "name" : "TANGENT"}, {"bufferView" : 5, "byteOffset" : 40, "componentType" : 5126, "count" : 3903, "type" : "VEC2", "max" : [0.9857610464096069, 0.6144216656684875], "min" : [0.37126514315605164, 0.03278625011444092], "name" : "TEXCOORD_0"}, {"bufferView" : 0, "byteOffset" : 37392, "componentType" : 5123, "count" : 12129, "type" : "SCALAR", "max" : [9753], "min" : [0]}, {"bufferView" : 6, "byteOffset" : 0, "componentType" : 5126, "count" : 9754, "type" : "VEC3", "max" : [0.20512357354164124, 1.098663568496704, 0.14754147827625275], "min" : [-0.2051241248846054, 0.08966958522796631, -0.1325524002313614], "name" : "POSITION"}, {"bufferView" : 6, "byteOffset" : 12, "componentType" : 5126, "count" : 9754, "type" : "VEC3", "max" : [0.999984860420227, 0.9997848272323608, 0.9999340176582336], "min" : [-0.999984622001648, -0.9999135136604309, -0.9998167753219604], "name" : "NORMAL"}, {"bufferView" : 6, "byteOffset" : 24, "componentType" : 5126, "count" : 9754, "type" : "VEC4", "max" : [1.0000016689300537, 0.9892525672912598, 0.9996787309646606, 0], "min" : [-0.9999280571937561, -0.9876026511192322, -0.9993745684623718, 0], "name" : "TANGENT"}, {"bufferView" : 6, "byteOffset" : 40, "componentType" : 5126, "count" : 9754, "type" : "VEC2", "max" : [0.9822460412979126, 0.9900230765342712], "min" : [0.01680031418800354, 0.004192829132080078], "name" : "TEXCOORD_0"}, {"bufferView" : 0, "byteOffset" : 61652, "componentType" : 5123, "count" : 1668, "type" : "SCALAR", "max" : [1360], "min" : [0]}, {"bufferView" : 7, "byteOffset" : 0, "componentType" : 5126, "count" : 1361, "type" : "VEC3", "max" : [0.21573787927627563, 0.1549208015203476, 0.2163013517856598], "min" : [-0.21573832631111145, -0.00024299282813444734, -0.12587088346481323], "name" : "POSITION"}, {"bufferView" : 7, "byteOffset" : 12, "componentType" : 5126, "count" : 1361, "type" : "VEC3", "max" : [0.9999811053276062, 0.9883444905281067, 0.9636372327804565], "min" : [-0.9999811053276062, -0.9999707341194153, -0.999502956867218], "name" : "NORMAL"}, {"bufferView" : 7, "byteOffset" : 24, "componentType" : 5126, "count" : 1361, "type" : "VEC4", "max" : [0.9996519684791565, 0.9722880125045776, 0.9279578328132629, 0], "min" : [-0.9996810555458069, -0.8656602501869202, -0.7447106838226318, 0], "name" : "TANGENT"}, {"bufferView" : 7, "byteOffset" : 40, "componentType" : 5126, "count" : 1361, "type" : "VEC2", "max" : [0.980658769607544, 0.9713845252990723], "min" : [0.03361448645591736, 0.0213925838470459], "name" : "TEXCOORD_0"}, {"bufferView" : 0, "byteOffset" : 64988, "componentType" : 5123, "count" : 13761, "type" : "SCALAR", "max" : [11024], "min" : [0]}, {"bufferView" : 8, "byteOffset" : 0, "componentType" : 5126, "count" : 11025, "type" : "VEC3", "max" : [0.4140944182872772, 1.615830898284912, 0.14196182787418365], "min" : [-0.4141705334186554, 1.0276145935058594, -0.1291361004114151], "name" : "POSITION"}, {"bufferView" : 8, "byteOffset" : 12, "componentType" : 5126, "count" : 11025, "type" : "VEC3", "max" : [0.9987375140190125, 0.9984251856803894, 0.9999611377716064], "min" : [-0.999630868434906, -0.9993709325790405, -0.9999072551727295], "name" : "NORMAL"}, {"bufferView" : 8, "byteOffset" : 24, "componentType" : 5126, "count" : 11025, "type" : "VEC4", "max" : [0.9999973177909851, 0.9996232390403748, 0.9998028874397278, 0], "min" : [-0.9999871850013733, -0.994679868221283, -0.9998852014541626, 0], "name" : "TANGENT"}, {"bufferView" : 8, "byteOffset" : 40, "componentType" : 5126, "count" : 11025, "type" : "VEC2", "max" : [0.9872035980224609, 0.985297679901123], "min" : [0.01736871898174286, 0.0033104419708251953], "name" : "TEXCOORD_0"}, {"bufferView" : 0, "byteOffset" : 92512, "componentType" : 5123, "count" : 7659, "type" : "SCALAR", "max" : [6150], "min" : [0]}, {"bufferView" : 9, "byteOffset" : 0, "componentType" : 5126, "count" : 6151, "type" : "VEC3", "max" : [0.07763999700546265, 1.855592131614685, 0.12154104560613632], "min" : [-0.06094330549240112, 1.7855720520019531, -0.053250622004270554], "name" : "POSITION"}, {"bufferView" : 9, "byteOffset" : 12, "componentType" : 5126, "count" : 6151, "type" : "VEC3", "max" : [0.9986428618431091, 0.9996165037155151, 0.9996868371963501], "min" : [-0.9978131651878357, -0.9996045827865601, -0.9982088208198547], "name" : "NORMAL"}, {"bufferView" : 9, "byteOffset" : 24, "componentType" : 5126, "count" : 6151, "type" : "VEC2", "max" : [0.999500036239624, 0.9994999766349792], "min" : [0.0005000000237487257, 0.01625823974609375], "name" : "TEXCOORD_0"}, {"bufferView" : 0, "byteOffset" : 107832, "componentType" : 5123, "count" : 1680, "type" : "SCALAR", "max" : [1392], "min" : [0]}, {"bufferView" : 10, "byteOffset" : 0, "componentType" : 5126, "count" : 1393, "type" : "VEC3", "max" : [0.08158464729785919, 1.7374935150146484, 0.12615077197551727], "min" : [-0.08158464729785919, 1.6953554153442383, -0.0018571318360045552], "name" : "POSITION"}, {"bufferView" : 10, "byteOffset" : 12, "componentType" : 5126, "count" : 1393, "type" : "VEC3", "max" : [1.0000008344650269, 0.9986981153488159, 0.9983014464378357], "min" : [-1.0000008344650269, -0.9986991286277771, -0.9982932209968567], "name" : "NORMAL"}, {"bufferView" : 10, "byteOffset" : 24, "componentType" : 5126, "count" : 1393, "type" : "VEC2", "max" : [0.998046875, 0.998046875], "min" : [0.0019558214116841555, 0.10603249073028564], "name" : "TEXCOORD_0"}], "asset" : {"generator" : "Aspose.3D 23.7.0", "version" : "2.0"}, "buffers" : [{"uri" : "data:application/octet-stream;base64,", "byteLength" : 2409188}], "bufferViews" : [{"buffer" : 0, "byteOffset" : 0, "byteLength" : 111192, "target" : 34963}, {"buffer" : 0, "byteOffset" : 111196, "byteLength" : 19776, "byteStride" : 32, "target" : 34962}, {"buffer" : 0, "byteOffset" : 130976, "byteLength" : 19776, "byteStride" : 32, "target" : 34962}, {"buffer" : 0, "byteOffset" : 150756, "byteLength" : 393024, "byteStride" : 32, "target" : 34962}, {"buffer" : 0, "byteOffset" : 543784, "byteLength" : 9600, "byteStride" : 32, "target" : 34962}, {"buffer" : 0, "byteOffset" : 553388, "byteLength" : 234144, "byteStride" : 48, "target" : 34962}, {"buffer" : 0, "byteOffset" : 787536, "byteLength" : 582192, "byteStride" : 48, "target" : 34962}, {"buffer" : 0, "byteOffset" : 1369732, "byteLength" : 80064, "byteStride" : 48, "target" : 34962}, {"buffer" : 0, "byteOffset" : 1449800, "byteLength" : 660528, "byteStride" : 48, "target" : 34962}, {"buffer" : 0, "byteOffset" : 2110332, "byteLength" : 245088, "byteStride" : 32, "target" : 34962}, {"buffer" : 0, "byteOffset" : 2355424, "byteLength" : 53760, "byteStride" : 32, "target" : 34962}], "images" : [{"uri" : "data:image/jpeg;base64,"}, {"uri" : "data:image/jpeg;base64,"}, {"uri" : "data:image/jpeg;base64,"}, {"uri" : "data:image/jpeg;base64,"}, {"uri" : "data:image/jpeg;base64,"}, {"uri" : "data:image/jpeg;base64,"}, {"uri" : "data:image/jpeg;base64,"}, {"uri" : "data:image/jpeg;base64,"}, {"uri" : "data:image/jpeg;base64,"}, {"uri" : "data:image/jpeg;base64,"}, {"uri" : "data:image/jpeg;base64,"}, {"uri" : "data:image/jpeg;base64,"}, {"uri" : "data:image/jpeg;base64,"}, {"uri" : "data:image/jpeg;base64,"}, {"uri" : "data:image/png;base64,"}], "materials" : [{"name" : "Wolf3D_Eye", "pbrMetallicRoughness" : {"baseColorFactor" : [1, 1, 1, 1], "baseColorTexture" : {"index" : 0, "texCoord" : 0}, "metallicFactor" : 0, "roughnessFactor" : 1}, "emissiveFactor" : [0, 0, 0], "alphaMode" : "OPAQUE", "doubleSided" : false}, {"name" : "Wolf3D_Eye", "pbrMetallicRoughness" : {"baseColorFactor" : [1, 1, 1, 1], "baseColorTexture" : {"index" : 0, "texCoord" : 0}, "metallicFactor" : 0, "roughnessFactor" : 1}, "emissiveFactor" : [0, 0, 0], "alphaMode" : "OPAQUE", "doubleSided" : false}, {"name" : "Wolf3D_Skin", "pbrMetallicRoughness" : {"baseColorFactor" : [1, 1, 1, 1], "baseColorTexture" : {"index" : 1, "texCoord" : 0}, "metallicFactor" : 0, "roughnessFactor" : 0.699999988079071}, "emissiveFactor" : [0, 0, 0], "alphaMode" : "OPAQUE", "doubleSided" : false}, {"name" : "Wolf3D_Teeth", "pbrMetallicRoughness" : {"baseColorFactor" : [1, 1, 1, 1], "baseColorTexture" : {"index" : 2, "texCoord" : 0}, "metallicFactor" : 0, "roughnessFactor" : 1}, "emissiveFactor" : [0, 0, 0], "alphaMode" : "OPAQUE", "doubleSided" : true}, {"name" : "Wolf3D_Body", "pbrMetallicRoughness" : {"baseColorFactor" : [1, 1, 1, 1], "baseColorTexture" : {"index" : 4, "texCoord" : 0}, "metallicFactor" : 0, "roughnessFactor" : 0.5527864098548889}, "normalTexture" : {"index" : 3, "texCoord" : 0, "scale" : 1}, "emissiveFactor" : [0, 0, 0], "alphaMode" : "OPAQUE", "doubleSided" : false}, {"name" : "Wolf3D_Outfit_Bottom", "pbrMetallicRoughness" : {"baseColorFactor" : [1, 1, 1, 1], "baseColorTexture" : {"index" : 6, "texCoord" : 0}, "metallicFactor" : 0, "roughnessFactor" : 1, "metallicRoughnessTexture" : {"index" : 7, "texCoord" : 0}}, "normalTexture" : {"index" : 5, "texCoord" : 0, "scale" : 1}, "emissiveFactor" : [0, 0, 0], "alphaMode" : "OPAQUE", "doubleSided" : false}, {"name" : "Wolf3D_Outfit_Footwear", "pbrMetallicRoughness" : {"baseColorFactor" : [1, 1, 1, 1], "baseColorTexture" : {"index" : 9, "texCoord" : 0}, "metallicFactor" : 0, "roughnessFactor" : 0.3658193051815033}, "normalTexture" : {"index" : 8, "texCoord" : 0, "scale" : 1}, "emissiveFactor" : [0, 0, 0], "alphaMode" : "OPAQUE", "doubleSided" : false}, {"name" : "Wolf3D_Outfit_Top", "pbrMetallicRoughness" : {"baseColorFactor" : [1, 1, 1, 1], "baseColorTexture" : {"index" : 11, "texCoord" : 0}, "metallicFactor" : 0, "roughnessFactor" : 0.8590909242630005}, "normalTexture" : {"index" : 10, "texCoord" : 0, "scale" : 1}, "emissiveFactor" : [0, 0, 0], "alphaMode" : "OPAQUE", "doubleSided" : false}, {"name" : "Wolf3D_Hair", "pbrMetallicRoughness" : {"baseColorFactor" : [1, 1, 1, 1], "baseColorTexture" : {"index" : 13, "texCoord" : 0}, "metallicFactor" : 0, "roughnessFactor" : 0.858578622341156}, "normalTexture" : {"index" : 12, "texCoord" : 0, "scale" : 1}, "emissiveFactor" : [0, 0, 0], "alphaMode" : "OPAQUE", "doubleSided" : true}, {"name" : "Wolf3D_Glasses", "pbrMetallicRoughness" : {"baseColorFactor" : [1, 1, 1, 1], "baseColorTexture" : {"index" : 14, "texCoord" : 0}, "metallicFactor" : 0, "roughnessFactor" : 0.41363635659217834}, "emissiveFactor" : [0, 0, 0], "alphaMode" : "OPAQUE", "doubleSided" : false}], "meshes" : [{"primitives" : [{"attributes" : {"POSITION" : 1, "TEXCOORD_0" : 2, "NORMAL" : 3}, "indices" : 0, "material" : 0, "mode" : 4}]}, {"primitives" : [{"attributes" : {"POSITION" : 5, "TEXCOORD_0" : 6, "NORMAL" : 7}, "indices" : 4, "material" : 1, "mode" : 4}]}, {"primitives" : [{"attributes" : {"POSITION" : 9, "TEXCOORD_0" : 10, "NORMAL" : 11}, "indices" : 8, "material" : 2, "mode" : 4}]}, {"primitives" : [{"attributes" : {"POSITION" : 13, "TEXCOORD_0" : 14, "NORMAL" : 15}, "indices" : 12, "material" : 3, "mode" : 4}]}, {"primitives" : [{"attributes" : {"POSITION" : 17, "NORMAL" : 18, "TANGENT" : 19, "TEXCOORD_0" : 20}, "indices" : 16, "material" : 4, "mode" : 4}]}, {"primitives" : [{"attributes" : {"POSITION" : 22, "NORMAL" : 23, "TANGENT" : 24, "TEXCOORD_0" : 25}, "indices" : 21, "material" : 5, "mode" : 4}]}, {"primitives" : [{"attributes" : {"POSITION" : 27, "NORMAL" : 28, "TANGENT" : 29, "TEXCOORD_0" : 30}, "indices" : 26, "material" : 6, "mode" : 4}]}, {"primitives" : [{"attributes" : {"POSITION" : 32, "NORMAL" : 33, "TANGENT" : 34, "TEXCOORD_0" : 35}, "indices" : 31, "material" : 7, "mode" : 4}]}, {"primitives" : [{"attributes" : {"POSITION" : 37, "NORMAL" : 38, "TEXCOORD_0" : 39}, "indices" : 36, "material" : 8, "mode" : 4}]}, {"primitives" : [{"attributes" : {"POSITION" : 41, "NORMAL" : 42, "TEXCOORD_0" : 43}, "indices" : 40, "material" : 9, "mode" : 4}]}], "nodes" : [{"mesh" : 0, "name" : "EyeLeft"}, {"mesh" : 1, "name" : "EyeRight"}, {"mesh" : 2, "name" : "Wolf3D_Head"}, {"mesh" : 3, "name" : "Wolf3D_Teeth"}, {"mesh" : 4, "name" : "Wolf3D_Body"}, {"mesh" : 5, "name" : "Wolf3D_Outfit_Bottom"}, {"mesh" : 6, "name" : "Wolf3D_Outfit_Footwear"}, {"mesh" : 7, "name" : "Wolf3D_Outfit_Top"}, {"mesh" : 8, "name" : "Wolf3D_Hair"}, {"mesh" : 9, "name" : "Wolf3D_Glasses"}, {"children" : [0, 1, 2, 3, 4, 5, 6, 7, 8, 9], "name" : "Armature"}], "samplers" : [{"magFilter" : 9728, "minFilter" : 9728, "wrapS" : 10497, "wrapT" : 10497}, {"magFilter" : 9728, "minFilter" : 9728, "wrapS" : 10497, "wrapT" : 10497}, {"magFilter" : 9729, "minFilter" : 9987, "wrapS" : 10497, "wrapT" : 10497}, {"magFilter" : 9729, "minFilter" : 9987, "wrapS" : 10497, "wrapT" : 10497}, {"magFilter" : 9728, "minFilter" : 9728, "wrapS" : 10497, "wrapT" : 10497}, {"magFilter" : 9729, "minFilter" : 9987, "wrapS" : 10497, "wrapT" : 10497}, {"magFilter" : 9729, "minFilter" : 9987, "wrapS" : 10497, "wrapT" : 10497}, {"magFilter" : 9729, "minFilter" : 9987, "wrapS" : 10497, "wrapT" : 10497}, {"magFilter" : 9729, "minFilter" : 9987, "wrapS" : 10497, "wrapT" : 10497}, {"magFilter" : 9729, "minFilter" : 9987, "wrapS" : 10497, "wrapT" : 10497}, {"magFilter" : 9729, "minFilter" : 9987, "wrapS" : 10497, "wrapT" : 10497}, {"magFilter" : 9729, "minFilter" : 9987, "wrapS" : 10497, "wrapT" : 10497}, {"magFilter" : 9729, "minFilter" : 9987, "wrapS" : 10497, "wrapT" : 10497}, {"magFilter" : 9728, "minFilter" : 9728, "wrapS" : 10497, "wrapT" : 10497}, {"magFilter" : 9729, "minFilter" : 9987, "wrapS" : 10497, "wrapT" : 10497}], "scene" : 0, "scenes" : [{"nodes" : [10]}], "textures" : [{"sampler" : 0, "source" : 0, "name" : ""}, {"sampler" : 1, "source" : 1, "name" : ""}, {"sampler" : 2, "source" : 2, "name" : ""}, {"sampler" : 3, "source" : 3, "name" : ""}, {"sampler" : 4, "source" : 4, "name" : ""}, {"sampler" : 5, "source" : 5, "name" : ""}, {"sampler" : 6, "source" : 6, "name" : ""}, {"sampler" : 7, "source" : 7, "name" : ""}, {"sampler" : 8, "source" : 8, "name" : ""}, {"sampler" : 9, "source" : 9, "name" : ""}, {"sampler" : 10, "source" : 10, "name" : ""}, {"sampler" : 11, "source" : 11, "name" : ""}, {"sampler" : 12, "source" : 12, "name" : ""}, {"sampler" : 13, "source" : 13, "name" : ""}, {"sampler" : 14, "source" : 14, "name" : ""}]}