<svg xmlns="http://www.w3.org/2000/svg" version="1.1" xmlns:xlink="http://www.w3.org/1999/xlink" xmlns:svgjs="http://svgjs.dev/svgjs" width="2000" height="974" viewBox="0 0 2000 974"><g transform="matrix(1,0,0,1,-1.212120511739954,1.0033892106065423)"><svg viewBox="0 0 396 193" data-background-color="#ffffff" preserveAspectRatio="xMidYMid meet" height="974" width="2000" xmlns="http://www.w3.org/2000/svg" xmlns:xlink="http://www.w3.org/1999/xlink"><g id="tight-bounds" transform="matrix(1,0,0,1,0.24000013867544112,-0.19882352941176862)"><svg viewBox="0 0 395.52 193.39764705882354" height="193.39764705882354" width="395.52"><g><svg viewBox="0 0 395.52 193.39764705882354" height="193.39764705882354" width="395.52"><g><svg viewBox="0 0 395.52 193.39764705882354" height="193.39764705882354" width="395.52"><g id="textblocktransform"><svg viewBox="0 0 395.52 193.39764705882354" height="193.39764705882354" width="395.52" id="textblock"><g><svg viewBox="0 0 395.52 193.39764705882354" height="193.39764705882354" width="395.52"><g transform="matrix(1,0,0,1,0,0)"><svg width="395.52" viewBox="2.200000047683716 -33.25 68 33.25" height="193.39764705882354" data-palette-color="#ea3c12"><path d="M29.85 0L2.2 0 2.2-0.8 6.45-2.85 6.45-30.15 2.2-32.2 2.2-33 18.75-33 18.75-32.2 14-30.15 14-2.75 25-2.75 29.05-12.2 29.85-12.2 29.85 0ZM44.25 0L33.4 0 33.4-0.8 36.45-2.5 49.5-33.25 53.9-33.25 66.8-2.6 70.2-0.8 70.2 0 54.4 0 54.4-0.8 58.75-2.6 55.35-10.9 43.5-10.9 40.1-2.6 44.25-0.8 44.25 0ZM49.45-25.3L44.65-13.65 54.2-13.65 49.45-25.3Z" opacity="1" transform="matrix(1,0,0,1,0,0)" fill="#ea3c12" class="wordmark-text-0" data-fill-palette-color="primary" id="text-0"></path></svg></g></svg></g></svg></g></svg></g></svg></g><defs></defs></svg><rect width="395.52" height="193.39764705882354" fill="none" stroke="none" visibility="hidden"></rect></g></svg></g></svg>